<?xml version="1.0" encoding="utf-8"?>
<!-- Generator: Adobe Illustrator 26.3.1, SVG Export Plug-In . SVG Version: 6.00 Build 0)  -->
<svg version="1.1" id="b" xmlns="http://www.w3.org/2000/svg" xmlns:xlink="http://www.w3.org/1999/xlink" x="0px" y="0px"
	 viewBox="0 0 24 24" style="enable-background:new 0 0 24 24;" xml:space="preserve">
<style type="text/css">
	.st0{fill-rule:evenodd;clip-rule:evenodd;}
</style>
<g id="c">
	<g transform="matrix(1,0,0,1,-148,0)">
		<path class="st0" d="M160,0c-6.6,0-12,5.4-12,12s5.4,12,12,12s12-5.4,12-12S166.6,0,160,0z M163.2,13.6c0.9,0,1.6,0.7,1.6,1.6
			c0,0.9-0.7,1.6-1.6,1.6s-1.6-0.7-1.6-1.6S162.3,13.6,163.2,13.6z M163.4,7.4l-8,8c-0.3,0.3-0.3,0.8,0,1.1c0.3,0.3,0.8,0.3,1.1,0
			l8-8c0.3-0.3,0.3-0.8,0-1.1S163.7,7.1,163.4,7.4z M156.8,7.2c0.9,0,1.6,0.7,1.6,1.6s-0.7,1.6-1.6,1.6c-0.9,0-1.6-0.7-1.6-1.6
			S155.9,7.2,156.8,7.2z" style="fill:#fff;"/>
	</g>
</g>
</svg>
