<?xml version="1.0" encoding="utf-8"?>
<!-- Generator: Adobe Illustrator 26.3.1, SVG Export Plug-In . SVG Version: 6.00 Build 0)  -->
<svg version="1.1" id="Ebene_1" xmlns="http://www.w3.org/2000/svg" xmlns:xlink="http://www.w3.org/1999/xlink" x="0px" y="0px"
	 viewBox="0 0 297 72" style="enable-background:new 0 0 297 72;" xml:space="preserve">
<style type="text/css">
	.st0{fill:#FFFFFF;}
</style>
<path class="st0" d="M278.3,43.6V23.9h-6.6v-6.5h6.6V5.9h7.1v11.5h9.2v6.5h-9.2v19.2c0,4.2,1.8,6.1,5.1,6.1c1.3,0,2.2-0.2,3.2-0.6
	l2.5,6.1c-1.6,0.7-3.3,1-5.7,1C282.5,55.7,278.3,51.3,278.3,43.6z M232.7,36.2c0-10.7,7.4-20,18.4-20c11.2,0,18.4,7.9,18.4,20
	c0,0.5-0.1,1.3-0.1,1.3h-29.7c0.4,8,6.1,12.3,12,12.3c4.1,0,8.3-1.7,10.3-6.5l6.3,2.6c-2.2,5.4-7.8,10.3-16.4,10.3
	C240.4,56.3,232.7,47.6,232.7,36.2L232.7,36.2z M251,22.7c-5.2,0-9.4,3.5-10.8,9.1h21.8C261.8,28.4,259.1,22.7,251,22.7z
	 M198.1,49.8h-0.3v5.2H191v-55h7.1v17.4l-0.3,5.2h0.3c2.2-3.5,6.8-6.5,12.8-6.5c9.5,0,17.9,8.5,17.9,20s-8.4,20-17.9,20
	C204.9,56.3,200.2,53.3,198.1,49.8z M221.7,36.2c0-8.4-5.7-13.6-12-13.6s-12,5-12,13.6s5.7,13.6,12,13.6S221.7,44.7,221.7,36.2z
	 M150.3,43.7c0-8.5,7.7-13.1,16.5-13.1c5.1,0,8.8,1.5,10.2,2.3v-1.1c0-5.7-4.5-9.1-9.8-9.1c-3.9,0-7.7,1.9-9,5.5l-6.5-2.8
	c1.3-3.5,5.8-9.1,15.3-9.1c9.2,0,16.7,5.5,16.7,16.1v22.7h-6.8v-5.2h-0.3c-2.1,3.1-5.9,6.5-12.4,6.5
	C156.7,56.3,150.3,51.5,150.3,43.7z M177.1,38.9c0,0-3-2.5-9-2.5c-7.4,0-10.4,4-10.4,7.5c0,4,4.1,6,7.8,6
	C171.1,49.8,177.1,45,177.1,38.9z M118.3,17.4l-0.3,5.2h0.3c2-3.5,6.8-6.5,11.9-6.5c9.6,0,14.4,6.5,14.4,15.8v23h-7.1v-22
	c0-7.8-3.9-10.4-9.3-10.4c-6.1,0-9.9,5.8-9.9,11.6v20.8h-7.1v-55h7.1L118.3,17.4L118.3,17.4z M75.2,49.8h-0.3l0.3,5.2v16.6h-7.1
	V17.4h6.8v5.2h0.3c2.2-3.5,6.8-6.5,12.8-6.5c9.5,0,17.9,8.5,17.9,20s-8.4,20-17.9,20C82,56.3,77.4,53.3,75.2,49.8z M98.9,36.2
	c0-8.4-5.7-13.6-12-13.6c-6.3,0-12,5-12,13.6s5.7,13.6,12,13.6C93.2,49.8,98.9,44.7,98.9,36.2z M53.6,55.1h7.1v-55h-7.1
	C53.6,0.1,53.6,55.1,53.6,55.1z M20.8,0.1L0,55.1h7.8l5.4-14.9h23.1l5.3,14.9h7.8l-20.7-55H20.8z M24.6,8.8h0.3l9,24.8H15.6
	C15.6,33.6,24.6,8.8,24.6,8.8z"/>
</svg>
