<?xml version="1.0" encoding="utf-8"?>
<!-- Generator: Adobe Illustrator 26.3.1, SVG Export Plug-In . SVG Version: 6.00 Build 0)  -->
<svg version="1.1" id="Ebene_1" xmlns="http://www.w3.org/2000/svg" xmlns:xlink="http://www.w3.org/1999/xlink" x="0px" y="0px"
	 viewBox="0 0 131 28" style="enable-background:new 0 0 131 28;" xml:space="preserve">
<style type="text/css">
	.st0{fill:#FFFFFF;}
</style>
<path class="st0" d="M45,26.4c-4.6,0.4-6.8-3.9-7.2-8.1c-0.5-5.7,2.5-8,5.3-8.2c4.4-0.4,6.7,3.8,7.1,8.1C50.7,23.8,48,26.1,45,26.4z
	 M34.3,18.4c0,5.1,3.6,9.2,9.8,9.2c5.6,0,9.6-4,9.6-9.4c0-5-3.3-9.3-9.6-9.3C38.4,8.9,34.3,13,34.3,18.4z M120.1,4.2
	c0-2.1-1.4-3.9-3.1-3.9c-1.5,0-1.9,1.1-1.9,1.7c0,0.8,0.5,1.1,1.1,1.1c0.8,0,2,0.7,2,2.3c0,1.7-1.5,2.8-3,3.5
	c-0.2,0.3,0,0.7,0.3,0.9C117.9,8.9,120.1,7,120.1,4.2 M126.9,17.3l-2.5-1.3c-1.6-0.9-2.6-1.7-2.6-3.2c0-1.4,0.9-2.8,3.2-2.8
	c2.3,0,3.4,2.1,3.7,3.5c0.2,0.3,0.9,0.2,1-0.1c0-1.7-0.3-3.3-0.6-4c-1.3-0.2-2.3-0.6-3.7-0.6c-4,0-6.2,2.1-6.2,5
	c0,2.3,1.6,3.9,3.5,4.9l1.8,0.9c2.3,1.2,2.8,2.5,2.8,3.8c0,1.9-1.3,2.9-3.3,2.9c-2.7,0-4.4-2.9-4.7-4.3c-0.3-0.4-0.9-0.3-1,0.1
	c0,2.1,0.5,3.6,0.8,4.2c0.6,0.4,2.1,1.3,4.6,1.3c3.9,0,6.5-2,6.5-5.1C130.1,19.8,128.3,18,126.9,17.3 M85.5,26.1
	c-3,0-3.4-1.3-3.4-3.9v-9.7c0-0.9,0-1.4,0.2-1.6c0.3-0.3,1.1-0.4,2.4-0.4c4.5,0,7.9,2.6,7.9,7.6C92.6,23,90.2,26.1,85.5,26.1
	L85.5,26.1z M90.6,10.2c-1.9-0.7-3.8-0.9-6-0.9c-3.2,0-5.4,0.1-7.7,0.2c-0.4,0.1-0.4,0.9,0,1l1.2,0.2c0.9,0.1,1,0.8,1,3.4v8.6
	c0,2.8-0.2,3-1.9,3.2l-0.8,0.1c-0.3,0.2-0.2,0.9,0.1,1c1.4-0.1,2.7-0.1,4.1-0.1c0.6,0,1.3,0,2.1,0.1c0.8,0.1,1.8,0.1,2.6,0.1
	c2,0,4.2-0.3,6-1.3c3.2-1.7,4.8-4.6,4.8-7.8C96.1,14.4,94.2,11.5,90.6,10.2z M113.1,9.3c-1.1,0.1-2,0.1-2.8,0.1c-0.9,0-1.8,0-3-0.1
	c-0.4,0.2-0.4,0.8-0.1,1l0.8,0.1c1,0.1,0.9,0.5,0.3,1.6l-1.6,3c-0.7,1.3-1.3,2.3-1.9,3.4c-0.6-1.1-1.2-2.2-1.8-3.4l-1.5-2.9
	c-0.6-1.3-0.5-1.5,0.4-1.7l0.6-0.1c0.4-0.2,0.3-0.9,0-1c-2.3,0.2-4.7,0.2-7,0c-0.3,0.1-0.4,0.8-0.1,1l1,0.2c1,0.2,1.4,0.6,2.3,2.2
	l2.9,5.5c1,1.9,1.1,2.2,1.1,3.5v1.5c0,2.4-0.2,2.6-1.9,2.8l-1,0.1c-0.3,0.2-0.2,0.9,0.1,1c1.8-0.1,3-0.1,4.3-0.1
	c1.2,0,2.5,0,4.3,0.1c0.3-0.1,0.4-0.8,0.1-1l-1-0.1c-1.7-0.2-1.9-0.4-1.9-2.8V21c0-1.2,0.1-1.6,1.5-3.9l2.5-4.1
	c1.2-2,1.4-2.3,2.7-2.5l0.9-0.2C113.5,10.1,113.4,9.4,113.1,9.3 M66.3,26.4c-4.6,0.4-6.8-3.9-7.2-8.1c-0.5-5.7,2.5-8,5.3-8.2
	c4.4-0.4,6.7,3.8,7.1,8.1C72,23.8,69.3,26.1,66.3,26.4z M65.4,8.9c-5.8,0-9.8,4.1-9.8,9.5c0,5.1,3.6,9.2,9.8,9.2
	c5.6,0,9.6-4,9.6-9.4C75.1,13.2,71.8,8.9,65.4,8.9L65.4,8.9z M32.5,26c-1.9-0.2-1.8-1.3-1.9-3.3c-0.3-5.8-0.4-13.3-0.4-17.7
	c0-2.8,0.3-3.6,2.8-3.9l0.8-0.1c0.2-0.2,0.2-0.9,0-1c-1.2,0.1-2.5,0.1-3.5,0.1c-0.8,0-1.6,0-3-0.1c-0.1,1.9-1.2,4.1-3,7.8l-3.7,7.7
	c-1,2.1-2,4.2-3.1,6.1h-0.1c-1-1.8-1.8-3.6-2.7-5.6L10,6.9C8.8,4.3,7.8,1.7,8,0.2C6.7,0.3,5.6,0.3,4.7,0.3c-1,0-1.9,0-3.1-0.1
	c-0.3,0.2-0.4,0.8-0.2,1L2,1.3c2.4,0.4,2.7,0.9,2.7,3.5c-0.1,3-0.3,6-0.4,9c-0.2,4-0.4,6.2-0.7,8.9c-0.2,2.8-0.8,3.1-2.5,3.3
	l-0.9,0.1c-0.2,0.2-0.2,0.8,0.1,1c1.3-0.1,2.7-0.1,4-0.1c1.5,0,3.1,0,4.4,0.1c0.3-0.1,0.3-0.8,0-1L7.3,26c-1.6-0.1-1.8-0.8-1.8-3.8
	c0-3.4,0.2-7.1,0.3-9.5C5.9,10.4,6,8,6.2,5.5h0.1c0.9,1.9,1.7,4,2.5,5.8l3.6,7.8c0.9,2,2.8,6,3.5,8.1c0.1,0.1,0.3,0.2,0.4,0.2
	c0.2,0,0.3,0,0.4-0.2c0.7-1.9,2.5-5.7,4.3-9.2l3.5-7.1c0.8-1.6,2.3-4.8,2.6-5.3h0.1l0.1,16.9c0,2.6,0,3.2-1.9,3.4l-1.1,0.1
	c-0.2,0.2-0.2,0.8,0.1,1c1.6-0.1,3.4-0.1,4.8-0.1c1.4,0,3.1,0,4.7,0.1c0.3-0.2,0.3-0.8,0.1-1L32.5,26"/>
</svg>
