<svg xmlns="http://www.w3.org/2000/svg" xmlns:xlink="http://www.w3.org/1999/xlink" viewBox="0 0 1103.58 462.55"><defs><style>.cls-1,.cls-2,.cls-3,.cls-4,.cls-5{stroke-miterlimit:10;stroke-width:2.04px;}.cls-1{fill:url(#Neues_Verlaufsfeld_3);stroke:url(#Unbenannter_Verlauf_15);}.cls-2{fill:url(#Neues_Verlaufsfeld_3-2);stroke:url(#Unbenannter_Verlauf_15-2);}.cls-3{fill:url(#Neues_Verlaufsfeld_3-3);stroke:url(#Unbenannter_Verlauf_15-3);}.cls-4{fill:url(#Neues_Verlaufsfeld_3-4);stroke:url(#Unbenannter_Verlauf_15-4);}.cls-5{fill:url(#Neues_Verlaufsfeld_3-5);stroke:url(#Unbenannter_Verlauf_15-5);}</style><linearGradient id="Neues_Verlaufsfeld_3" x1="156.15" y1="368.4" x2="156.15" y2="1.02" gradientUnits="userSpaceOnUse"><stop offset="0" stop-color="#fff" stop-opacity="0.2"/><stop offset="1" stop-color="#fff" stop-opacity="0.5"/></linearGradient><linearGradient id="Unbenannter_Verlauf_15" x1="156.15" y1="369.42" x2="156.15" gradientUnits="userSpaceOnUse"><stop offset="0" stop-color="#fff" stop-opacity="0.4"/><stop offset="1" stop-color="#fff" stop-opacity="0.2"/></linearGradient><linearGradient id="Neues_Verlaufsfeld_3-2" x1="413.16" y1="368.4" x2="413.16" y2="1.02" xlink:href="#Neues_Verlaufsfeld_3"/><linearGradient id="Unbenannter_Verlauf_15-2" x1="413.16" y1="369.42" x2="413.16" y2="0" xlink:href="#Unbenannter_Verlauf_15"/><linearGradient id="Neues_Verlaufsfeld_3-3" x1="565.2" y1="368.4" x2="565.2" y2="1.02" xlink:href="#Neues_Verlaufsfeld_3"/><linearGradient id="Unbenannter_Verlauf_15-3" x1="565.2" y1="369.42" x2="565.2" y2="0" xlink:href="#Unbenannter_Verlauf_15"/><linearGradient id="Neues_Verlaufsfeld_3-4" x1="739.37" y1="370.97" x2="739.37" y2="22.63" xlink:href="#Neues_Verlaufsfeld_3"/><linearGradient id="Unbenannter_Verlauf_15-4" x1="739.37" y1="371.99" x2="739.37" y2="21.61" xlink:href="#Unbenannter_Verlauf_15"/><linearGradient id="Neues_Verlaufsfeld_3-5" x1="965.76" y1="461.53" x2="965.76" y2="102.38" xlink:href="#Neues_Verlaufsfeld_3"/><linearGradient id="Unbenannter_Verlauf_15-5" x1="965.76" y1="462.55" x2="965.76" y2="101.36" xlink:href="#Unbenannter_Verlauf_15"/></defs><g id="Ebene_2" data-name="Ebene 2"><g id="Ebene_3" data-name="Ebene 3"><path class="cls-1" d="M81.29,1,234.62,247.48h1V1h75.63V368.4H230.5L77.69,122.45h-1v246H1V1Z"/><path class="cls-2" d="M376.63,61.22V1h73.06v60.2Zm73.06,41.16v266H376.63v-266Z"/><path class="cls-3" d="M479.53,151.26V102.38h43.74V81.8q0-35.5,22.12-58.14T612.28,1q9.78,0,19.55.77t19,1.29V57.62a224.34,224.34,0,0,0-26.75-1.54q-14.94,0-21.36,6.94t-6.43,23.41v15.95h50.43v48.88H596.33V368.4H523.27V151.26Z"/><path class="cls-4" d="M824.78,102.38v48.88H771.27V283q0,18.52,6.18,24.7t24.69,6.18q6.18,0,11.84-.52a100.6,100.6,0,0,0,10.8-1.54v56.6a175.14,175.14,0,0,1-20.58,2.06q-11.33.5-22.12.51a213.72,213.72,0,0,1-32.16-2.31,75.92,75.92,0,0,1-26.76-9,47.57,47.57,0,0,1-18.27-19q-6.69-12.35-6.68-32.41V151.26H654V102.38h44.25V22.63h73.06v79.75Z"/><path class="cls-5" d="M958,447.64q-21.1,13.89-58.66,13.89-11.31,0-22.38-.77T854.62,459v-60.2q10.29,1,21.1,2.05a151.42,151.42,0,0,0,21.61.52q14.4-1.54,21.35-11.32a36.51,36.51,0,0,0,7-21.61,43.93,43.93,0,0,0-3.09-16.47L829.41,102.38H907.1l60.2,182.15h1l58.15-182.15h75.63L991,401.33Q979.14,433.75,958,447.64Z"/></g></g></svg>