<?xml version="1.0" encoding="utf-8"?>
<!-- Generator: Adobe Illustrator 26.3.1, SVG Export Plug-In . SVG Version: 6.00 Build 0)  -->
<svg version="1.1" id="b" xmlns="http://www.w3.org/2000/svg" xmlns:xlink="http://www.w3.org/1999/xlink" x="0px" y="0px"
	 viewBox="0 0 24 24" style="enable-background:new 0 0 24 24;" xml:space="preserve" >
<style type="text/css" >
	.st0{fill-rule:evenodd;clip-rule:evenodd;}
</style>
<g id="c">
	<g transform="matrix(1,0,0,1,-37,-148)">
		<path class="st0" d="M49,148c-6.6,0-12,5.4-12,12c0,6.6,5.4,12,12,12s12-5.4,12-12C61,153.4,55.6,148,49,148z M48.2,153.7
			c-1.2,0.2-2.3,0.6-3,1.3c-0.7,0.6-1,1.4-1,2.2s0.4,1.6,1,2.2c0.7,0.7,1.8,1.2,3,1.3v4c-0.8-0.1-1.5-0.4-2-0.9
			c-0.3-0.3-0.5-0.7-0.5-1.1c0-0.4-0.4-0.8-0.8-0.8s-0.8,0.4-0.8,0.8c0,0.8,0.4,1.6,1,2.2c0.7,0.7,1.8,1.2,3.1,1.3v1.4
			c0,0.4,0.4,0.8,0.8,0.8c0.4,0,0.8-0.4,0.8-0.8v-1.4c1.2-0.1,2.3-0.6,3-1.3c0.7-0.6,1.1-1.4,1.1-2.2s-0.4-1.6-1-2.2
			c-0.7-0.7-1.8-1.2-3-1.3v-4c0.8,0.1,1.5,0.4,2,0.9c0.3,0.3,0.5,0.7,0.5,1.1c0,0.4,0.4,0.8,0.8,0.8s0.8-0.4,0.8-0.8
			c0-0.8-0.4-1.6-1-2.2c-0.7-0.7-1.8-1.2-3.1-1.3v-1.4c0-0.4-0.4-0.8-0.8-0.8c-0.4,0-0.8,0.4-0.8,0.8
			C48.2,152.3,48.2,153.7,48.2,153.7z M49.8,160.8v3.9c0.8-0.1,1.5-0.4,2-0.9c0.3-0.3,0.5-0.7,0.5-1.1c0-0.4-0.2-0.8-0.5-1.1
			C51.3,161.3,50.6,161,49.8,160.8L49.8,160.8z M48.2,155.3c-0.8,0.1-1.5,0.4-1.9,0.9c-0.3,0.3-0.5,0.7-0.5,1.1
			c0,0.4,0.2,0.8,0.5,1.1c0.5,0.4,1.1,0.7,1.9,0.9V155.3L48.2,155.3z" style="fill:#fff;"/>
	</g>
</g>
</svg>
