<?xml version="1.0" encoding="UTF-8"?><svg xmlns="http://www.w3.org/2000/svg" viewBox="0 0 521.45 103.74"><defs><style>.d{fill:#0daa40;}</style></defs><g id="a"/><g id="b"><g id="c"><g><path class="d" d="M521.45,37.93c-.67,.51-1.34,.53-2.19,.32-4.35-1.06-8.7-.93-12.88,.72-6.2,2.45-9.34,7.23-9.5,13.76-.21,8.22-.11,16.45-.14,24.67,0,2.04-.13,2.16-2.22,2.16-3.62,0-7.25,0-10.87,0-1.56,0-1.95-.37-1.95-1.87,0-17.7,0-35.39,0-53.09,0-1.5,.35-1.86,1.81-1.86,3.58,0,7.17,0,10.75,0,1.51,0,1.89,.4,1.9,1.93,0,2.19,0,4.38,0,6.93,1.03-1.68,1.89-3.07,3.04-4.24,4.45-4.49,9.95-6.11,16.13-5.91,1.25,.04,2.48,.15,3.71,.46,1,.25,1.84,.69,2.41,1.57v14.46Z"/><path class="d" d="M26.73,103.51h4.29c.07,.06,.08,.11,.06,.16-.03,.04-.05,.07-.08,.07h-4.25c-.08-.04-.11-.09-.09-.14,.02-.05,.04-.08,.07-.08Z"/><path class="d" d="M0,48.9c.54,1.23,.14,2.5,.21,3.76-.08,.1-.15,.09-.21-.02v-3.74Z"/><path class="d" d="M26.73,103.51c.02,.07,.02,.15,.02,.23h-1.5c.43-.49,.99-.16,1.48-.23Z"/><path class="d" d="M0,52.64c.07,0,.14,.01,.21,.02,0,.41,0,.83,0,1.24-.07,0-.14,0-.21-.01v-1.25Z"/><path class="d" d="M31,103.74c0-.07,0-.15,.02-.22,.42,.04,.89-.23,1.23,.22h-1.25Z"/><path class="d" d="M240.4,80.94c-5.87-.07-12.2-1-18.04-4.13-1.99-1.07-3.77-2.42-5.35-4.04-.76-.79-.84-1.52-.15-2.41,2.23-2.89,4.43-5.82,6.64-8.73,.83-1.08,1.51-1.17,2.45-.24,3.86,3.8,8.64,5.47,13.92,5.96,2.16,.2,4.33,.25,6.45-.27,1.49-.36,2.87-.98,3.56-2.47,.78-1.66,.2-3.3-1.48-4.22-1.99-1.09-4.21-1.5-6.39-2.01-4.53-1.05-9.14-1.79-13.4-3.79-10.49-4.93-13.32-18.31-5.57-26.62,3.1-3.32,7.11-5,11.49-5.83,7.33-1.38,14.57-1.14,21.61,1.58,2.94,1.14,5.55,2.81,7.89,4.92,.85,.77,.9,1.48,.22,2.37-2.09,2.69-4.15,5.41-6.21,8.12-.99,1.29-1.45,1.32-2.75,.35-5.15-3.84-10.94-4.99-17.22-4.05-1,.15-1.92,.56-2.69,1.23-1.63,1.42-1.48,3.58,.36,4.71,1.32,.82,2.83,1.17,4.32,1.56,4.42,1.15,8.98,1.74,13.31,3.26,4.13,1.44,7.83,3.5,10.13,7.43,5.92,10.12,.57,22.77-10.96,25.96-3.76,1.04-7.6,1.37-12.13,1.38Z"/><path class="d" d="M182.95,80.95c-6-.07-12.52-1.04-18.5-4.39-1.79-1-3.4-2.24-4.84-3.7-.84-.85-.89-1.67-.13-2.63,2.19-2.77,4.33-5.58,6.5-8.37,1.05-1.36,1.51-1.34,2.8-.18,5.8,5.22,12.67,6.59,20.2,5.44,.87-.13,1.67-.52,2.37-1.05,2.07-1.56,1.89-4.45-.4-5.65-2.42-1.27-5.12-1.7-7.75-2.28-4.06-.9-8.15-1.64-11.94-3.47-4.99-2.41-8.54-5.98-9.58-11.63-1.62-8.86,2.25-16.36,10.72-19.41,9.88-3.55,19.76-3.2,29.29,1.57,1.83,.92,3.44,2.17,4.96,3.54,.81,.72,.85,1.44,.2,2.28-2.14,2.76-4.25,5.54-6.4,8.29-.85,1.09-1.37,1.09-2.5,.23-5.16-3.91-10.99-5.08-17.32-4.12-.91,.14-1.76,.5-2.5,1.06-1.82,1.38-1.7,3.83,.3,4.94,2.29,1.27,4.86,1.66,7.37,2.23,4.21,.96,8.47,1.69,12.47,3.45,7.56,3.34,10.39,9.24,9.84,17.13-.63,8.99-6.22,13.89-14.88,15.78-3.15,.69-6.34,.9-10.29,.91Z"/><path class="d" d="M87.03,39.83c0,12.55,0,25.09,0,37.64,0,1.98-.15,2.13-2.13,2.13-3.71,0-7.42,0-11.12,0-1.54,0-1.9-.35-1.91-1.91-.02-2.08,0-4.15,0-6.23,0-22.93,0-45.86,0-68.79,0-.46,0-.92,.04-1.37,.09-.77,.53-1.21,1.32-1.21,4.12,0,8.25,0,12.37,0,1.15,0,1.45,.71,1.44,1.73-.02,5.9,0,11.8,0,17.7,0,6.77,0,13.54,0,20.31Z"/><path class="d" d="M59.62,24.44c0-1.43-.34-1.76-1.79-1.76-3.71,0-7.41,.02-11.12,.04-1.59,0-1.97,.38-1.97,1.99,0,1.83,0,3.67,0,5.67-.8-.95-1.4-1.75-2.09-2.46-.72-.74-1.48-1.46-2.31-2.09-7.24-5.51-18.41-6.04-26.77-1.23C6.17,28.85,2.34,35.53,.74,43.69,.44,45.17,.56,46.71,0,48.15v.75c.28,1.21,.05,2.44,.13,3.66,0,.42,0,.83,0,1.25-.09,3.45,.58,6.76,1.79,9.98,2.84,7.59,8.05,12.74,15.79,15.33,3.33,1.11,6.74,1.38,10.22,1.28,4.8-.13,9.17-1.46,13.03-4.37,1.23-.93,2.2-2.12,3.47-3.23-.01,1.37,.03,2.61-.02,3.84-.2,5.68-3.33,9.96-8.57,11.62-3.51,1.11-7.14,1.16-10.76,.81-4.68-.46-8.64-2.57-12.22-5.5-1.27-1.04-2.11-.92-2.96,.5-1.8,2.99-3.61,5.97-5.29,9.03-.95,1.74-.81,2.28,.71,3.5,4.68,3.78,10.06,5.96,15.98,6.84,1.14,.17,2.31,.07,3.45,.3h.5c.54-.26,1.11-.07,1.66-.13,1.3,0,2.6,0,3.91,0,.48,.06,.98-.13,1.43,.13h.75c.07-.27,.29-.24,.49-.25,2.21-.13,4.38-.48,6.53-1,7.06-1.71,12.82-5.21,16.35-11.79,2.24-4.19,3.22-8.73,3.23-13.42,.06-17.61,.03-35.23,.02-52.84Zm-25.84,41.5c-10.17,2.12-19.32-4.92-18.14-16.56,.7-6.92,4.72-11.51,10.75-12.96,10.25-2.45,18.63,4.2,18.6,14.78-.02,7.6-4.24,13.29-11.21,14.74Z"/><path class="d" d="M333.26,2.29c0-2.02-.15-2.21-2.19-2.24-3.54-.05-7.08-.04-10.62-.05-1.89,0-2.19,.29-2.19,2.14,0,9.01,0,18.02,0,27.04,0,.41,.14,.87-.2,1.29-.47-.57-.88-1.1-1.32-1.59-9.81-11.05-28.08-10.02-37.07,2.1-3.65,4.92-5.33,10.55-5.79,16.57-.57,7.42,.36,14.58,4.1,21.17,7.38,12.97,23.09,14.95,33.06,9.49,2.8-1.53,5.09-3.66,7.22-6.45,0,2.21,0,4.1,0,5.98,0,1.45,.38,1.81,1.86,1.81,3.67,0,7.33,0,11,0,1.95,0,2.14-.19,2.14-2.14,0-7.14,0-14.29,0-21.43,0-17.9,0-35.8,0-53.7Zm-22,62.3c-5.45,2.81-10.95,2.54-16.09-.88-3.44-2.29-5.29-5.71-5.81-9.76-.73-5.61,.36-10.77,4.94-14.52,4.94-4.03,10.59-4.48,16.29-1.94,5.82,2.6,8.01,7.61,8.2,13.65-.16,5.84-2.17,10.68-7.53,13.44Z"/><path class="d" d="M403.21,47.88c-.96-9.75-5.42-17.41-14-22.4-6.74-3.92-14.09-4.87-21.71-3.72-9.19,1.39-16.47,5.86-21.16,14.01-3.64,6.32-4.53,13.21-3.52,20.34,.91,6.43,3.59,12.06,8.35,16.58,6.11,5.81,13.55,8.16,21.55,8.26,2.05-.04,3.79-.11,5.52-.39,9.02-1.46,16.24-5.72,21-13.65,3.52-5.86,4.64-12.29,3.98-19.03Zm-30.34,18.26c-8.71,0-14.86-6.12-14.87-14.82-.01-8.94,6.22-15.25,15.06-15.25,8.68,0,14.9,6.32,14.89,15.14,0,8.73-6.26,14.92-15.09,14.93Z"/><path class="d" d="M463.71,29.51c-6.07-5.79-13.5-8.07-21.09-8.18-2.44,.02-4.23,.11-6,.4-9.02,1.48-16.22,5.75-20.95,13.73-3.14,5.3-4.26,11.12-3.94,17.21,.55,10.61,5.06,18.98,14.46,24.33,6.44,3.66,13.47,4.58,20.77,3.59,14.88-2.02,25.03-13.17,25.53-28.09,.3-8.86-2.22-16.72-8.77-22.99Zm-21.75,36.63c-8.66,0-14.95-6.36-14.95-15.08,0-8.71,6.3-14.99,15.03-14.98,8.78,0,14.97,6.27,14.96,15.15,0,8.74-6.24,14.92-15.04,14.92Z"/><path class="d" d="M148.22,38.35c-1.37-7.8-5.63-13.13-13.39-15.44-4.24-1.26-8.57-1.56-12.96-1.31-3.88,.22-7.7,.75-11.36,2.13-4.84,1.82-8.72,4.77-11.18,9.42-.43,.82-.41,1.48,.39,2.06,2.87,2.07,5.72,4.15,8.59,6.21,1.04,.74,1.52,.62,2.21-.5,1.11-1.78,2.61-3.14,4.51-3.99,4.53-2.04,9.24-2.27,14.04-1.13,1.39,.33,2.66,1,3.57,2.15,1.05,1.33,1.32,2.87,.84,4.47-.36,1.2-1.52,1.36-2.54,1.46-3.85,.39-7.71,.69-11.56,1.05-3.48,.32-6.98,.47-10.3,1.72-6.06,2.28-10.32,6.28-11.54,12.78-1.22,6.53,.19,12.46,5.45,16.92,5.23,4.45,11.47,5.2,18,4.06,5.22-.91,9.42-3.58,12.7-7.88,0,1.73,0,3.46,0,5.2,0,1.75,.27,2.04,2,2.04,3.62,0,7.25,0,10.87,0,1.82,0,2.17-.36,2.17-2.19,0-10.8,0-21.6,0-32.4,0-2.29-.13-4.57-.52-6.82Zm-14.52,17.65c.05,8.44-6.98,12.79-14.02,12.24-1.25-.1-2.46-.34-3.61-.89-2.07-.99-3.19-2.64-3.27-4.9-.08-2.16,.92-3.82,2.76-4.97,1.56-.97,3.31-1.3,5.09-1.52,4.08-.51,8.16-1.04,12.25-1.5,1.61-.18,.39,1.16,.81,1.54Z"/></g></g></g></svg>