<?xml version="1.0" encoding="utf-8"?>
<!-- Generator: Adobe Illustrator 26.3.1, SVG Export Plug-In . SVG Version: 6.00 Build 0)  -->
<svg version="1.1" id="Ebene_1" xmlns="http://www.w3.org/2000/svg" xmlns:xlink="http://www.w3.org/1999/xlink" x="0px" y="0px"
	 viewBox="0 0 54.4 14.3" style="enable-background:new 0 0 54.4 14.3;" xml:space="preserve">
<style type="text/css">
	.st0{fill:#FFFFFF;}
</style>
<g>
	<path class="st0" d="M6,0H0v14.3L6,0z"/>
	<path class="st0" d="M10.2,0h6v14.3L10.2,0z"/>
	<path class="st0" d="M8.1,5.3l3.8,9.1H9.4l-1.1-2.9H5.5L8.1,5.3z"/>
</g>
<g>
	<path class="st0" d="M26,9.1l0.7,2c0,0.1,0.1,0.1,0.1,0.1h1.4c0.1,0,0.1,0,0.1-0.1l-2.8-7.8c0-0.1,0-0.1-0.1-0.1h-1.7
		c0,0-0.1,0-0.1,0.1c0,0.4-0.1,0.5-0.1,0.7L21,11.1c0,0.1,0,0.1,0.1,0.1h1.2c0.1,0,0.1,0,0.1-0.1l0.7-2H26z M23.5,7.8
		c0.4-1.1,0.9-2.5,1-3.3h0c0.2,0.9,0.8,2.5,1.1,3.3H23.5z"/>
	<path class="st0" d="M31.9,11.3c0.7,0,1.5-0.1,2.3-0.5c0.1,0,0.1-0.1,0.1-0.1c0-0.2-0.1-0.5-0.1-0.8V2.6c0,0,0-0.1-0.1-0.1h-1.3
		c-0.1,0-0.1,0-0.1,0.1v2.5c-0.2,0-0.4,0-0.5,0c-2.1,0-3.4,1.4-3.4,3.2C28.7,10.3,30.1,11.3,31.9,11.3z M32.7,10
		c-0.2,0.1-0.5,0.1-0.7,0.1c-1,0-1.8-0.5-1.8-1.9c0-1.2,0.8-1.9,1.9-1.9c0.2,0,0.4,0,0.6,0.1V10z"/>
	<path class="st0" d="M38.5,5.1c-1.8,0-3,1.4-3,3.1c0,1.5,0.9,3.1,2.9,3.1c1.7,0,2.9-1.3,2.9-3.1C41.3,6.5,40.3,5.1,38.5,5.1z
		 M38.4,6.3c1,0,1.5,0.9,1.5,1.9c0,1.2-0.6,1.9-1.4,1.9c-0.9,0-1.5-0.8-1.5-1.9C37,7.1,37.6,6.3,38.4,6.3z"/>
	<path class="st0" d="M42.7,2.6C42.7,2.6,42.6,2.6,42.7,2.6L42.6,11c0,0,0,0.1,0.1,0.1c0.6,0.2,1.2,0.3,1.8,0.3
		c1.8,0,3.6-1.1,3.6-3.4c0-1.6-1.1-2.9-2.9-2.9c-0.4,0-0.8,0.1-1.1,0.2l0-2.6c0-0.1,0-0.1-0.1-0.1H42.7z M46.6,8.1
		c0,1.3-0.9,2-1.9,2c-0.2,0-0.4,0-0.6-0.1V6.5c0.2-0.1,0.4-0.1,0.8-0.1C45.9,6.4,46.6,7,46.6,8.1z"/>
	<path class="st0" d="M53,8.6c0.6,0,1.1,0,1.2-0.1c0.1,0,0.1,0,0.1-0.1c0-0.1,0.1-0.4,0.1-0.8c0-1.2-0.7-2.6-2.5-2.6
		c-1.8,0-2.9,1.5-2.9,3.2c0,1.5,0.8,3.1,3,3.1c0.8,0,1.4-0.1,1.8-0.4c0,0,0.1-0.1,0.1-0.1v-1c0-0.1,0-0.1-0.1,0
		c-0.5,0.2-1,0.3-1.5,0.3c-1.2,0-1.8-0.7-1.8-1.5H53z M50.6,7.5c0.1-0.6,0.5-1.2,1.3-1.2c0.9,0,1.2,0.8,1.2,1.1c0,0,0,0.1,0,0.1
		c-0.1,0-0.2,0-0.7,0H50.6z"/>
</g>
</svg>
