<?xml version="1.0" encoding="utf-8"?>
<!-- Generator: Adobe Illustrator 26.3.1, SVG Export Plug-In . SVG Version: 6.00 Build 0)  -->
<svg version="1.1" id="svg3428" xmlns:svg="http://www.w3.org/2000/svg"
	 xmlns="http://www.w3.org/2000/svg" xmlns:xlink="http://www.w3.org/1999/xlink" x="0px" y="0px" viewBox="0 0 1024 229"
	 style="enable-background:new 0 0 1024 229;" xml:space="preserve">
<style type="text/css">
	.st0{fill:#FFFFFF;}
</style>
<g id="layer1" transform="translate(8.9495639,-16.622821)">
	<path id="path16357" class="st0" d="M-4.5,16.6c-6.9,0,4.9,4,4.9,16.5c0,0,0,161.4,0,179c0,0.1,0.5,15-2.4,19.4
		c-5.5,8.3-9.7,10.7-1.9,10.7c0,0,140.4,0.1,145.5,0c4.8-0.1,6.6,0.9,8.2-4.4c2.2-7,7.3-43.7,7.3-43.7s3.4-9.5-6.8,2.9
		c-33.1,40.4-71.8,38.6-85.8,37.8c-32.9-1.8-33-4.1-33-23.3c0,0-0.6-169.4-0.5-179c0.1-13.1,12.5-16,3.9-16
		C34.8,16.6,1.9,16.6-4.5,16.6z M183.7,16.6c-10.8,0,6.3,4.1,15.5,29.6c2.4,5.7,77.6,194,77.6,194c1.1,1.9,2.4,1.9,2.4,1.9
		s15.3,0,17,0s2.8-1.7,3.4-2.4c0,0,63.6-166.6,67.4-176.5c3.9-10,17-33.8,25.2-41.7c6.4-6.1-3.4-4.9-3.4-4.9s-37.6,0-43.2,0
		c-2.8,0-8-1.7-0.5,9.2c13.6,19.8,4.4,41.7,4.4,41.7l-51.9,143.1c0,0-62.3-162.3-64.5-167.8s-1.6-14.7,1.9-18.9
		c7.1-8.4,4.6-7.3-1-7.3C230.3,16.6,189.8,16.6,183.7,16.6z M486.9,16.6c-14.6,0,5.3,2.8,4.4,33.5c0.3,23.6-15.2,143.5-20.4,160.1
		c-4.7,15-10.9,25.7-13.1,28.1c-2.5,2.8-2.6,3.9,1,3.9c1.7,0,29.7,0,32.5,0c6.4,0-0.5-6.3-0.5-6.3s-5.3-8.3-3.4-25.7
		c0.7-6.6,18.4-160.1,18.4-160.1s69.5,185.1,71.8,190.6c2.6,6.4,5.8,6.9,8.7,0c1-2.3,74.7-195,74.7-195c0,0,16.8,151.3,17.9,163.5
		c1.1,12.2,1.9,20.9,1,24.3c-1.9,7.2-7.6,8.7-1.9,8.7c7.8,0,39.9,0,42.7,0c6.1,0,4.9-1,2.4-4.9c-1.9-3-7.5-8.7-13.6-32.5
		c-5-19.7-15.4-157.5-16-166.4c-1.5-20.9,12.3-21.8,5.3-21.8c-2.2,0-39.8,0-39.8,0s-4.9,0.7-6.8,7.8c-0.9,3.4-60.1,170.2-60.1,170.2
		l-64.5-178C527.6,16.6,496.4,16.6,486.9,16.6z M836.1,16.6c-6.3,0-7.9,0.5-3.4,3.9c0,0,4.8,3,4.4,22.8c0,0,0.2,164.9,0,172.7
		c-0.3,13.4-1.3,19.6-4.4,23.3c-2.9,3.5,1.5,2.9,1.5,2.9s34,0,37.3,0c3.3,0,1.5-1.9,1.5-1.9s-4-1.1-4.4-24.3v-85.4h105.3
		c0,0,0.5,81.4,0.5,85.8c-0.1,13.8-0.2,19.3-3.4,22.3c-2.1,1.9-6.7,3.4,2.4,3.4c5,0,33.1,0,36.4,0c4.9,0,6.2,0.1,2.4-2.9
		c-2.2-1.8-5.3-4.9-5.3-22.8c0-5.6,0-174.5,0-178.5c0-14.5,4.9-17.9,4.9-17.9c2.5-2.6,2.4-3.4-3.4-3.4c-2.5,0-34.2,0-36.4,0
		c-8.3,0-4.4,3.4-4.4,3.4s6,6.7,6.3,16.5v84.4H868.6c0,0-0.1-74.2,0-78.6c0.1-14.5,4.1-18.9,5.8-21.3c3.6-5.1,2.1-4.4-3.4-4.4
		C869.3,16.6,845.5,16.6,836.1,16.6z"/>
</g>
</svg>
