<svg xmlns="http://www.w3.org/2000/svg" viewBox="0 0 494.15 262.25"><defs><style>.cls-1{fill:red;}.cls-2{fill:#fff;}</style></defs><g id="Ebene_2" data-name="Ebene 2"><g id="Ebene_1-2" data-name="Ebene 1"><path class="cls-1" d="M336,54.61c-9.37-34.56,80.73-5.07,123.89-16.78s23-60.16,32.39-25.6-18,72.05-61.17,83.75S345.4,89.16,336,54.61Z"/><path class="cls-2" d="M34.73,221.35H0L18.18,112.27h33l-3.27,20h1.21C56,119,69.67,110.85,85.86,110.85c22.86,0,35.15,16.34,31,41l-11.65,69.52H70.52L81,158.65c2-12.08-3.13-19.32-14.28-19.32-10.93,0-19.53,7.38-21.59,19.81Z"/><path class="cls-2" d="M144.81,112.27h34.72L161.35,221.35H126.63ZM149,82.87c1.42-9.16,10.44-16.54,20.24-16.54s16.68,7.38,15.48,16.54-10.3,16.62-20.1,16.62S147.65,92,149,82.87Z"/><path class="cls-2" d="M259.36,137.84H238.48l-13.92,83.51H189.9l13.92-83.51H189.19l4.34-25.57h14.55l.93-5.54c4.05-25.28,21.51-37.63,43.67-37.63a87.87,87.87,0,0,1,22.58,3.05l-9.58,25.42a35.34,35.34,0,0,0-9.59-1.49c-8,0-11.15,3.84-12.29,10.09l-1,6.1h20.88Z"/><path class="cls-2" d="M337.62,137.84H318l-8.17,49.21c-1.06,6.46,1.78,8.74,7.39,8.74a51.39,51.39,0,0,0,7.81-1.07l1.13,25.07a75.77,75.77,0,0,1-18.25,3.12c-24.92,1.07-37.42-10-33.37-32l8.8-53H268.81l4.33-25.57h14.34l4.33-26.13h34.73l-4.33,26.13H342Z"/><path class="cls-2" d="M335.35,258.78l11.93-25.22c9.59,3.34,16.76,3.06,21.66-5l2-3.33L351,112.27h35.08l7.11,77.91h1.13l33.38-77.91h37.85L404.66,231.79c-9.16,17.9-23.65,30.46-48.57,30.46C347.71,262.25,340.32,260.91,335.35,258.78Z"/></g></g></svg>