<?xml version="1.0" encoding="utf-8"?>
<!-- Generator: Adobe Illustrator 26.3.1, SVG Export Plug-In . SVG Version: 6.00 Build 0)  -->
<svg version="1.1" id="svg2" xmlns:svg="http://www.w3.org/2000/svg"
	 xmlns="http://www.w3.org/2000/svg" xmlns:xlink="http://www.w3.org/1999/xlink" x="0px" y="0px" viewBox="0 0 563 197"
	 style="enable-background:new 0 0 563 197;" xml:space="preserve">
<style type="text/css">
	.st0{fill:#FFFFFF;}
</style>
<g id="g6">
	<g id="g8">
		<polygon id="polygon10" class="st0" points="35.3,173.6 44.5,173.6 47.5,187.5 47.6,187.5 51.8,173.6 62.3,173.6 66.5,187.5 
			66.6,187.5 69.6,173.6 78.1,173.6 72.7,195.8 60.8,195.8 56.8,182.3 56.7,182.3 52.6,195.8 40.6,195.8 		"/>
		<path id="path12" class="st0" d="M88.5,173.6h11.8l11.5,22.2h-10.5l-1.7-3.7H88l-1.7,3.7H77L88.5,173.6z M97.5,187.3l-3.5-7.8
			l-3.6,7.8H97.5z"/>
		<path id="path14" class="st0" d="M122.2,188.7c0,1.2,0.3,2.1,0.9,2.7c0.6,0.6,1.5,0.9,2.7,0.9c2,0,4.1-0.5,4.1-2.3
			c0-0.4-0.1-0.7-0.4-1c-1.3-1.4-12.1-2.5-15.1-5.1c-1.2-1.1-1.6-2.6-1.6-3.9c0-4.9,4.5-7,13.5-7c9.6,0,12.5,2.6,12.6,7.2h-9.3
			c-0.1-1.2-0.5-2-1.2-2.5c-0.7-0.5-1.6-0.6-2.8-0.6c-2,0-3,0.7-3,1.9c0,0.4,0.1,0.8,0.4,1c1.5,1.4,11.9,2.4,14.9,5
			c0.9,0.8,1.8,2,1.8,4.1c0,4.4-4,7.2-14.2,7.2c-12.2,0-12.8-3.6-13-7.7H122.2L122.2,188.7z"/>
		<polygon id="polygon16" class="st0" points="149.6,179 142.2,179 142.2,173.6 166.5,173.6 166.5,179 159.1,179 159.1,195.8 
			149.6,195.8 		"/>
		<polygon id="polygon18" class="st0" points="169.8,173.6 191.4,173.6 191.4,178.3 179,178.3 179,182.4 190.7,182.4 190.7,187.1 
			179,187.1 179,191.2 191.5,191.2 191.5,195.8 169.8,195.8 		"/>
		<polygon id="polygon20" class="st0" points="208.9,173.6 223.3,173.6 228,188.5 228,188.5 232.6,173.6 247,173.6 247,195.8 
			238.2,195.8 238.2,179.1 238.2,179.1 232,195.8 222.8,195.8 217,179.1 216.9,179.1 216.9,195.8 208.9,195.8 		"/>
		<path id="path22" class="st0" d="M260.6,173.6h11.8l11.5,22.2h-10.4l-1.6-3.7h-11.6l-1.8,3.7h-9.3L260.6,173.6z M269.6,187.3
			l-3.5-7.8l-3.7,7.8H269.6z"/>
		<polygon id="polygon24" class="st0" points="285.9,173.6 299.8,173.6 307.4,188.5 307.5,188.5 307.5,173.6 315.7,173.6 
			315.7,195.8 302.3,195.8 294.2,180 294.2,180 294.2,195.8 285.9,195.8 		"/>
		<path id="path26" class="st0" d="M329.2,173.6H341l11.5,22.2h-10.5l-1.6-3.7h-11.6l-1.7,3.7h-9.3L329.2,173.6z M338.2,187.3
			l-3.5-7.8l-3.7,7.8H338.2z"/>
		<path id="path28" class="st0" d="M371.9,180.4c-0.1-0.6-0.5-1.2-1.2-1.8c-0.7-0.5-1.7-0.9-3.2-0.9c-4.1,0-6.3,2.7-6.3,6.7
			c0,4.3,2,7.4,6.7,7.4c2.1,0,3.6-0.3,4.4-0.8v-3.4h-5.5v-4.7h15v11.7c-4.4,1-10.3,1.8-15.3,1.8c-11.3,0-14.8-4.9-14.8-11.4
			c0-8.3,6-12,15.9-12c8.2,0,14,1.7,14.2,7.3L371.9,180.4L371.9,180.4z"/>
		<polygon id="polygon30" class="st0" points="386.9,173.6 408.5,173.6 408.5,178.3 396.1,178.3 396.1,182.4 407.7,182.4 
			407.7,187.1 396.1,187.1 396.1,191.2 408.6,191.2 408.6,195.8 386.9,195.8 		"/>
		<polygon id="polygon32" class="st0" points="412.9,173.6 427.2,173.6 432,188.5 432,188.5 436.6,173.6 451,173.6 451,195.8 
			442.2,195.8 442.2,179.1 442.2,179.1 436,195.8 426.8,195.8 421,179.1 420.9,179.1 420.9,195.8 412.9,195.8 		"/>
		<polygon id="polygon34" class="st0" points="456.3,173.6 477.9,173.6 477.9,178.3 465.5,178.3 465.5,182.4 477.1,182.4 
			477.1,187.1 465.5,187.1 465.5,191.2 478,191.2 478,195.8 456.3,195.8 		"/>
		<polygon id="polygon36" class="st0" points="482.2,173.6 496.1,173.6 503.7,188.5 503.7,188.5 503.7,173.6 512,173.6 512,195.8 
			498.5,195.8 490.5,180 490.4,180 490.4,195.8 482.2,195.8 		"/>
		<polygon id="polygon38" class="st0" points="521.8,179 514.4,179 514.4,173.6 538.7,173.6 538.7,179 531.3,179 531.3,195.8 
			521.8,195.8 		"/>
		<polygon id="polygon40" class="st0" points="0,0.9 61.6,0.9 81.8,94.2 82.4,94.2 110.7,0.9 181.8,0.9 209.6,94.2 210.3,94.2 
			230.2,0.9 287.4,0.9 251.6,150.2 171.3,150.2 144.2,59.5 143.6,59.5 116.3,150.2 35.4,150.2 		"/>
		<polygon id="polygon42" class="st0" points="287.1,1 368.1,1 395.3,91.8 395.9,91.8 423,1 503.3,1 539.1,150.3 481.9,150.3 
			462,57.1 461.4,57.1 433.5,150.3 362.4,150.3 334.1,57.1 333.5,57.1 313.3,150.3 251.7,150.3 		"/>
		<path id="path44" class="st0" d="M545.5,141.4c0-4.3,3.3-7.5,7.5-7.5c4.2,0,7.4,3.2,7.4,7.5c0,4.4-3.3,7.6-7.4,7.6
			C548.7,149,545.5,145.8,545.5,141.4 M552.9,150.5c5,0,9.3-3.8,9.3-9.1c0-5.2-4.3-9-9.3-9c-5,0-9.3,3.8-9.3,9
			C543.6,146.7,547.9,150.5,552.9,150.5 M551,142.1h1.8l2.8,4.5h1.8l-3-4.6c1.6-0.2,2.7-1,2.7-2.9c0-2.1-1.2-3-3.7-3h-4v10.4h1.6
			L551,142.1L551,142.1z M551,140.8v-3.2h2.2c1.1,0,2.3,0.2,2.3,1.5c0,1.6-1.2,1.7-2.6,1.7H551z"/>
	</g>
</g>
</svg>
